<svg xmlns="http://www.w3.org/2000/svg" viewBox="0 0 980 250" role="img" aria-labelledby="title desc" shape-rendering="geometricPrecision" text-rendering="geometricPrecision">
  <title id="title">NineMetrics</title><desc id="desc">NineMetrics AI Gameday Intelligence logo</desc>
  <defs>
    <linearGradient id="cyan" x1="0" y1="0" x2="1" y2="1"><stop offset="0" stop-color="#16f0ff"/><stop offset="1" stop-color="#0798ff"/></linearGradient>
  </defs>
  <path d="M86 163C255 239 748 239 905 186" fill="none" stroke="url(#cyan)" stroke-width="15" stroke-linecap="round"/>
  <path d="M177 92C402 34 799 30 915 63" fill="none" stroke="url(#cyan)" stroke-width="13" stroke-linecap="round"/>
  <path d="M111 127l-72 43 81-23" fill="url(#cyan)"/><path d="M122 146l-93 39 101-15" fill="url(#cyan)"/>
  <g transform="translate(110 70)">
    <circle cx="0" cy="0" r="58" fill="#f8fbff" stroke="#d4dce8" stroke-width="4"/>
    <path d="M-15-51c-7 19-9 34-6 49s13 28 28 41" fill="none" stroke="#27bfff" stroke-width="4"/>
    <path d="M20-50c-3 17-2 31 2 44 5 16 15 29 29 39" fill="none" stroke="#27bfff" stroke-width="4"/>
    <g stroke="#1971a8" stroke-width="3">
      <path d="M-21-37l10 5m-14 7l11 5m-13 8l12 5m-12 8l12 5m-10 10l11 4m18-55l10 5m-10 8l11 5m-10 8l11 5m-8 9l10 5m-6 10l9 4"/>
    </g>
  </g>
  <text x="193" y="117" font-family="Arial Black, Arial, sans-serif" font-size="78" font-style="italic" font-weight="900" letter-spacing="-5" fill="#ffffff">NINE</text>
  <text x="388" y="117" font-family="Arial Black, Arial, sans-serif" font-size="78" font-style="italic" font-weight="900" letter-spacing="-5" fill="url(#cyan)">METRICS</text>
  <line x1="292" y1="161" x2="345" y2="161" stroke="#13eaff" stroke-width="3"/>
  <text x="367" y="169" font-family="Arial, sans-serif" font-size="18" font-style="italic" font-weight="700" letter-spacing="8" fill="#ffffff">AI GAMEDAY INTELLIGENCE</text>
  <line x1="737" y1="161" x2="787" y2="161" stroke="#13eaff" stroke-width="3"/>
  <g transform="translate(785 132)" fill="none" stroke="url(#cyan)" stroke-width="7" stroke-linecap="round" stroke-linejoin="round">
    <path d="M0 48L27 35L48 27L71 8"/>
    <circle cx="0" cy="48" r="5" fill="#13eaff"/><circle cx="27" cy="35" r="5" fill="#13eaff"/><circle cx="48" cy="27" r="5" fill="#13eaff"/><circle cx="71" cy="8" r="5" fill="#13eaff"/>
  </g>
  <g fill="url(#cyan)"><rect x="778" y="188" width="10" height="18"/><rect x="799" y="177" width="10" height="29"/><rect x="820" y="166" width="10" height="40"/><rect x="841" y="152" width="10" height="54"/><rect x="862" y="136" width="10" height="70"/></g>
</svg>
